<svg width="569.894" height="396.313" viewBox="0 0 427.421 297.235" xmlns="http://www.w3.org/2000/svg" xmlns:xlink="http://www.w3.org/1999/xlink" color-interpolation-filters="sRGB" stroke-linecap="square" stroke-miterlimit="3" fill="none" fill-rule="evenodd" font-size="12" xml:space="preserve" overflow="visible"><g><g id="shape23-1" transform="translate(295.915 -69.3071)"><rect x="0" y="261.802" width="113.386" height="35.4331" stroke="#000000" stroke-width="0.24" stroke-linecap="round" stroke-linejoin="round" fill="#FFFFFF"/><text fill="#000000" font-family="Calibri" font-size="83.3336%" x="20.15" y="282.52">Dienstregelpunt C</text></g><g id="shape1032-4" transform="translate(18.12 -135.921)"><rect x="0" y="206.526" width="113.386" height="90.7086" stroke="#000000" stroke-width="0.24" stroke-linecap="round" stroke-linejoin="round" fill="#FFFFFF"/><text fill="#000000" font-family="Calibri" font-size="83.3336%" x="31.67" y="224.88">Gebeurtenis<tspan font-size="100%" x="34.25" dy="1.2em">‘</tspan>aankomst’<tspan font-size="100%" x="34.76" dy="1.2em">PA 8:45am</tspan><tspan font-size="100%" x="34.5" dy="1.2em">VA 8:44am</tspan><tspan font-size="100%" x="34.13" dy="1.2em">UA 8:47am</tspan><tspan font-size="100%" x="15.09" dy="1.2em">WA </tspan><tspan font-size="79.9995%">«waardeOnbekend»</tspan></text></g><g id="shape1035-13" transform="translate(18.12 -243.682)"><rect x="0" y="261.802" width="391.181" height="35.4331" stroke="#000000" stroke-width="0.24" stroke-linecap="round" stroke-linejoin="round" fill="#FFFFFF"/><text fill="#000000" font-family="Calibri" font-size="83.3336%" x="165.49" y="276.52">Treinbeweging<tspan font-size="100%" x="157.82" dy="1.2em">‘</tspan>vervoerbeweging’</text></g><g id="shape1036-17" transform="translate(81.8995 -135.921)"><path d="M-7.09 297.23-7.09 327" stroke="#000000" stroke-width="0.75" stroke-linecap="round" stroke-linejoin="round"/><rect x="-31.1293" y="307.317" width="48.0855" height="9.59985" stroke-width="7.2" stroke-linecap="butt" fill="#FFFFFF"/><text fill="#000000" font-family="Calibri" font-size="66.6664%" x="-31.13" y="314.52">vindt plaats op</text></g><g id="shape1037-22" transform="translate(213.711 -243.682)"><path d="M0 297.23 0 302.55-138.9 302.55-138.9 314.29" stroke="#000000" stroke-width="0.75" stroke-linecap="round" stroke-linejoin="round"/></g><g id="shape1042-25" transform="translate(295.915 -138.756)"><rect x="0" y="206.526" width="113.386" height="90.7086" stroke="#000000" stroke-width="0.24" stroke-linecap="round" stroke-linejoin="round" fill="#FFFFFF"/><text fill="#000000" font-family="Calibri" font-size="83.3336%" x="31.67" y="224.88">Gebeurtenis<tspan font-size="100%" x="39.53" dy="1.2em">‘</tspan>vertrek’<tspan font-size="100%" x="34.81" dy="1.2em">PV 8:50am</tspan><tspan font-size="100%" x="34.56" dy="1.2em">VV 8:50am</tspan><tspan font-size="100%" x="34.19" dy="1.2em">UV 8:47am</tspan><tspan font-size="100%" x="15.15" dy="1.2em">WV </tspan><tspan font-size="79.9995%">«waardeOnbekend»</tspan></text></g><g id="shape1043-34" transform="translate(213.711 -243.682)"><path d="M0 297.23 0 302.55 138.9 302.55 138.9 311.45" stroke="#000000" stroke-width="0.75" stroke-linecap="round" stroke-linejoin="round"/></g><g id="shape1048-37" transform="translate(154.183 -115.37)"><rect x="0" y="261.802" width="107.716" height="35.4331" stroke="#000000" stroke-width="0.24" stroke-linecap="round" stroke-linejoin="round" fill="#FFFFFF"/><text fill="#000000" font-family="Calibri" font-size="83.3336%" x="35.64" y="270.52">Activiteit<tspan font-size="100%" x="7.24" dy="1.2em">‘</tspan>commerciëel stoppen’<tspan font-size="100%" x="18.45" dy="1.2em">8:45am </tspan>– 8:50am</text></g><g id="shape1051-42" transform="translate(345.522 -138.756)"><path d="M7.09 297.23 7.09 331.25" stroke="#000000" stroke-width="0.75" stroke-linecap="round" stroke-linejoin="round"/><rect x="-16.956" y="309.443" width="48.0855" height="9.59985" stroke-width="7.2" stroke-linecap="butt" fill="#FFFFFF"/><text fill="#000000" font-family="Calibri" font-size="66.6664%" x="-16.96" y="316.64">vindt plaats op</text></g><g id="shape1069-47" transform="translate(18.12 -70.7244)"><rect x="0" y="261.802" width="113.386" height="35.4331" stroke="#000000" stroke-width="0.24" stroke-linecap="round" stroke-linejoin="round" fill="#FFFFFF"/><text fill="#000000" font-family="Calibri" font-size="83.3336%" x="20.15" y="282.52">Dienstregelpunt C</text></g><g id="shape1076-50" transform="translate(151.348 -18.2835)"><rect x="0" y="261.802" width="113.386" height="35.4331" stroke="#000000" stroke-width="0.24" stroke-linecap="round" stroke-linejoin="round" fill="#FFFFFF"/><text fill="#000000" font-family="Calibri" font-size="83.3336%" x="38.47" y="270.52">Activiteit<tspan font-size="100%" x="32.29" dy="1.2em">‘</tspan><tspan font-weight="700" font-size="100%">kopmaken</tspan>’<tspan font-size="100%" x="21.28" dy="1.2em">8:45am </tspan>– 8:48am</text></g><g id="shape1078-56" transform="translate(131.506 -181.276)"><path d="M0 297.23 10.63 297.23 10.63 345.42 22.68 345.42" stroke="#000000" stroke-width="0.75" stroke-linecap="round" stroke-linejoin="round"/><rect x="0.296242" y="317.238" width="20.6675" height="9.59985" stroke-width="7.2" stroke-linecap="butt" fill="#FFFFFF"/><text fill="#000000" font-family="Calibri" font-size="66.6664%" x="0.3" y="324.44">begint</text></g><g id="shape1079-61" transform="translate(261.899 -133.087)"><path d="M0 297.23 13.46 297.23 13.46 246.21 34.02 246.21" stroke="#000000" stroke-width="0.75" stroke-linecap="round" stroke-linejoin="round"/><rect x="2.21308" y="263.38" width="22.5033" height="9.59985" stroke-width="7.2" stroke-linecap="butt" fill="#FFFFFF"/><text fill="#000000" font-family="Calibri" font-size="66.6664%" x="2.21" y="270.58">eindigt</text></g><g id="shape1080-66" transform="translate(131.506 -181.276)"><path d="M0 297.23 10.63 297.23 10.63 442.51 19.84 442.51" stroke="#000000" stroke-width="0.75" stroke-linecap="round" stroke-linejoin="round"/></g><g id="shape1081-69" transform="translate(264.734 -36)"><path d="M0 297.23 10.63 297.23 10.63 149.12 31.18 149.12" stroke="#000000" stroke-width="0.75" stroke-linecap="round" stroke-linejoin="round"/></g></g></svg>