<svg width="1254.54" height="601.292" viewBox="0 0 940.905 450.969" xmlns="http://www.w3.org/2000/svg" xmlns:xlink="http://www.w3.org/1999/xlink" color-interpolation-filters="sRGB" stroke-linecap="square" stroke-miterlimit="3" fill="none" fill-rule="evenodd" font-size="12" xml:space="preserve" overflow="visible"><defs id="Markers"><marker markerUnits="strokeWidth" orient="auto" id="mrkr1-64" stroke="#000000" stroke-width="0.229358" fill="#000000" overflow="visible"><use width="100%" height="100%" xlink:href="#lend1" transform="scale(4.36 4.36)"></use></marker><marker markerUnits="strokeWidth" orient="auto" id="mrkr1-130" stroke="#7F7F7F" stroke-width="0.229358" fill="#7F7F7F" overflow="visible"><use width="100%" height="100%" xlink:href="#lend1" transform="scale(-4.36 -4.36)"></use></marker><g id="lend1"><path d="M1-1 0 0 1 1" stroke-linecap="round" stroke-linejoin="round"/></g></defs><g><g id="shape1082-1" transform="matrix(6.12323e-17 1 -1 6.12323e-17 1217.59 21.8268)"><path d="M0 450.97 411.02 450.97" stroke="#000000" stroke-width="0.2376" stroke-linecap="round" stroke-linejoin="round" stroke-dasharray="0.2376 0.4752"/></g><g id="shape1080-4" transform="matrix(6.12323e-17 1 -1 6.12323e-17 1033.34 21.8268)"><path d="M0 450.97 411.02 450.97" stroke="#000000" stroke-width="0.2376" stroke-linecap="round" stroke-linejoin="round" stroke-dasharray="0.2376 0.4752"/></g><g id="shape23-7" transform="translate(298.908 -193.867)"><rect x="0" y="415.536" width="113.386" height="35.4331" stroke="#000000" stroke-width="0.24" stroke-linecap="round" stroke-linejoin="round" fill="#FFFFFF"/><text fill="#000000" font-family="Calibri" font-size="83.3336%" x="20.1" y="436.25">Dienstregelpunt B</text></g><g id="shape24-10" transform="translate(525.68 -188.198)"><rect x="0" y="415.536" width="113.386" height="35.4331" stroke="#000000" stroke-width="0.24" stroke-linecap="round" stroke-linejoin="round" fill="#FFFFFF"/><text fill="#000000" font-family="Calibri" font-size="83.3336%" x="20.15" y="436.25">Dienstregelpunt C</text></g><g id="shape1032-13" transform="translate(72.1364 -259.064)"><rect x="0" y="360.261" width="113.386" height="90.7086" stroke="#000000" stroke-width="0.24" stroke-linecap="round" stroke-linejoin="round" fill="#FFFFFF"/><text fill="#000000" font-family="Calibri" font-size="83.3336%" x="31.67" y="378.61">Gebeurtenis<tspan font-size="100%" x="39.53" dy="1.2em">‘</tspan>vertrek’<tspan font-size="100%" x="34.81" dy="1.2em">PV 8:15am</tspan><tspan font-size="100%" x="28.15" dy="1.2em">VV 8:15:00am</tspan><tspan font-size="100%" x="27.78" dy="1.2em">UV 8:17:20am</tspan><tspan font-size="100%" x="15.15" dy="1.2em">WV </tspan><tspan font-size="79.9995%">«waardeOnbekend»</tspan></text></g><g id="shape1035-22" transform="translate(72.1364 -366.824)"><rect x="0" y="415.536" width="807.874" height="35.4331" stroke="#000000" stroke-width="0.24" stroke-linecap="round" stroke-linejoin="round" fill="#FFFFFF"/><text fill="#000000" font-family="Calibri" font-size="83.3336%" x="373.84" y="430.25">Treinbeweging<tspan font-size="100%" x="366.17" dy="1.2em">‘</tspan>vervoerbeweging’</text></g><g id="shape1036-26" transform="translate(135.916 -259.064)"><path d="M-7.09 450.97-7.09 480.73" stroke="#000000" stroke-width="0.75" stroke-linecap="round" stroke-linejoin="round"/><rect x="-31.1293" y="461.051" width="48.0855" height="9.59985" stroke-width="7.2" stroke-linecap="butt" fill="#FFFFFF"/><text fill="#000000" font-family="Calibri" font-size="66.6664%" x="-31.13" y="468.25">vindt plaats op</text></g><g id="shape1037-31" transform="translate(476.073 -366.824)"><path d="M0 450.97 0 456.28-347.24 456.28-347.24 468.02" stroke="#000000" stroke-width="0.75" stroke-linecap="round" stroke-linejoin="round"/></g><g id="shape1042-34" transform="translate(298.908 -259.064)"><rect x="0" y="360.261" width="113.386" height="90.7086" stroke="#000000" stroke-width="0.24" stroke-linecap="round" stroke-linejoin="round" fill="#FFFFFF"/><text fill="#000000" font-family="Calibri" font-size="83.3336%" x="31.67" y="378.61">Gebeurtenis<tspan font-size="100%" x="32.02" dy="1.2em">‘</tspan>doorkomst’<tspan font-size="100%" x="53.63" dy="1.2em">--</tspan><tspan font-size="100%" x="27.91" dy="1.2em">VD 8:28:10am</tspan><tspan font-size="100%" x="27.54" dy="1.2em">UD 8:32:30am</tspan><tspan font-size="100%" x="14.91" dy="1.2em">WD </tspan><tspan font-size="79.9995%">«waardeOnbekend»</tspan></text></g><g id="shape1043-43" transform="translate(476.073 -366.824)"><path d="M0 450.97 0 456.28-120.47 456.28-120.47 468.02" stroke="#000000" stroke-width="0.75" stroke-linecap="round" stroke-linejoin="round"/></g><g id="shape1047-46" transform="translate(525.68 -259.064)"><rect x="0" y="360.261" width="113.386" height="90.7086" stroke="#000000" stroke-width="0.24" stroke-linecap="round" stroke-linejoin="round" fill="#FFFFFF"/><text fill="#000000" font-family="Calibri" font-size="83.3336%" x="31.67" y="378.61">Gebeurtenis<tspan font-size="100%" x="34.25" dy="1.2em">‘</tspan>aankomst’<tspan font-size="100%" x="34.76" dy="1.2em">PA 8:45am</tspan><tspan font-size="100%" x="28.1" dy="1.2em">VA 8:44:05am</tspan><tspan font-size="100%" x="27.73" dy="1.2em">UA 8:47:20am</tspan><tspan font-size="100%" x="15.09" dy="1.2em">WA </tspan><tspan font-size="79.9995%">«waardeOnbekend»</tspan></text></g><g id="shape1048-55" transform="translate(72.1364 -57.8038)"><rect x="0" y="416.245" width="368.504" height="34.7244" stroke="#000000" stroke-width="0.24" stroke-linecap="round" stroke-linejoin="round" fill="#FFFFFF"/><text fill="#000000" font-family="Calibri" font-style="italic" font-size="83.3336%" x="166.19" y="430.61">Activiteit<tspan font-size="100%" x="143.45" dy="1.2em">‘</tspan>reizigers vervoeren’</text></g><g id="shape1049-59" transform="translate(79.223 -304.418)"><path d="M-7.09 450.97-41.1 450.97-41.1 680.22-7.09 680.22" stroke="#000000" stroke-width="0.75" stroke-linecap="round" stroke-linejoin="round" marker-start="url(#mrkr1-64)"/><rect x="-56.3168" y="559.38" width="30.4291" height="9.59985" stroke-linecap="butt" fill="#FFFFFF"/><text fill="#000000" font-family="Calibri" font-size="66.6664%" x="-56.32" y="566.58">begint bij</text></g><g id="shape1051-67" transform="translate(362.688 -259.064)"><path d="M-7.09 450.97-7.09 480.73" stroke="#000000" stroke-width="0.75" stroke-linecap="round" stroke-linejoin="round"/><rect x="-31.1293" y="461.051" width="48.0855" height="9.59985" stroke-width="7.2" stroke-linecap="butt" fill="#FFFFFF"/><text fill="#000000" font-family="Calibri" font-size="66.6664%" x="-31.13" y="468.25">vindt plaats op</text></g><g id="shape1054-72" transform="translate(525.68 -304.418)"><path d="M0 450.97-53.79 450.97-53.79 680.22-85.04 680.22" stroke="#000000" stroke-width="0.75" stroke-linecap="round" stroke-linejoin="round" marker-start="url(#mrkr1-64)"/><rect x="-69.9266" y="549.521" width="32.2649" height="9.59985" stroke-width="7.2" stroke-linecap="butt" fill="#FFFFFF"/><text fill="#000000" font-family="Calibri" font-size="66.6664%" x="-69.93" y="556.72">eindigt bij</text></g><g id="shape1057-79" transform="translate(575.286 -259.064)"><path d="M7.09 450.97 7.09 486.4" stroke="#000000" stroke-width="0.75" stroke-linecap="round" stroke-linejoin="round"/><rect x="-16.956" y="463.886" width="48.0855" height="9.59985" stroke-width="7.2" stroke-linecap="butt" fill="#FFFFFF"/><text fill="#000000" font-family="Calibri" font-size="66.6664%" x="-16.96" y="471.09">vindt plaats op</text></g><g id="shape1058-84" transform="translate(476.073 -366.824)"><path d="M0 450.97 0 456.28 106.3 456.28 106.3 468.02" stroke="#000000" stroke-width="0.75" stroke-linecap="round" stroke-linejoin="round"/></g><g id="shape1061-87" transform="translate(525.68 -125.127)"><rect x="0" y="415.536" width="113.386" height="35.4331" stroke="#000000" stroke-width="0.24" stroke-linecap="round" stroke-linejoin="round" fill="#FFFFFF"/><text fill="#000000" font-family="Calibri" font-size="83.3336%" x="38.47" y="430.25">Activiteit<tspan font-size="100%" x="10.08" dy="1.2em">‘</tspan>commerciëel stoppen’</text></g><g id="shape1062-91" transform="translate(525.68 -57.0952)"><rect x="0" y="415.536" width="113.386" height="35.4331" stroke="#000000" stroke-width="0.24" stroke-linecap="round" stroke-linejoin="round" fill="#FFFFFF"/><text fill="#000000" font-family="Calibri" font-size="83.3336%" x="38.47" y="424.25">Activiteit<tspan font-size="100%" x="16" dy="1.2em">‘</tspan>machinist wisselen’<tspan font-size="100%" x="21.28" dy="1.2em">8:45am </tspan>– 8:48am</text></g><g id="shape1069-96" transform="translate(72.1364 -193.867)"><rect x="0" y="415.536" width="113.386" height="35.4331" stroke="#000000" stroke-width="0.24" stroke-linecap="round" stroke-linejoin="round" fill="#FFFFFF"/><text fill="#000000" font-family="Calibri" font-size="83.3336%" x="19.92" y="436.25">Dienstregelpunt A</text></g><g id="shape1071-99" transform="translate(639.066 -74.8117)"><path d="M0 450.97 45.35 450.97 45.35 217.11 70.87 217.11" stroke="#7F7F7F" stroke-width="0.75" stroke-linecap="round" stroke-linejoin="round"/></g><g id="shape1072-102" transform="translate(639.066 -135.757)"><path d="M0 443.88 8.27 443.88C8.21371 442.577 9.22468 441.474 10.5281 441.418 11.8315 441.362 12.9337 442.373 12.99 443.676 12.9929 443.744 12.9929 443.812 12.99 443.88L45.35 443.88" stroke="#000000" stroke-width="0.75" stroke-linecap="round" stroke-linejoin="round"/></g><g id="shape1073-105" transform="translate(709.932 -192.45)"><rect x="0" y="415.536" width="113.386" height="35.4331" stroke="#7F7F7F" stroke-width="0.24" stroke-linecap="round" stroke-linejoin="round" fill="#FFFFFF"/><text fill="#7F7F7F" font-family="Calibri" font-size="83.3336%" x="20.15" y="436.25">Dienstregelpunt C</text></g><g id="shape1074-108" transform="translate(709.932 -263.316)"><rect x="0" y="360.261" width="113.386" height="90.7086" stroke="#7F7F7F" stroke-width="0.24" stroke-linecap="round" stroke-linejoin="round" fill="#FFFFFF"/><text fill="#7F7F7F" font-family="Calibri" font-size="83.3336%" x="31.67" y="378.61">Gebeurtenis<tspan font-size="100%" x="39.53" dy="1.2em">‘</tspan>vertrek’<tspan font-size="100%" x="34.76" dy="1.2em">PA 8:50am</tspan><tspan font-size="100%" x="28.1" dy="1.2em">VA 8:50:00am</tspan><tspan font-size="100%" x="27.73" dy="1.2em">UA 8:52:30am</tspan><tspan font-size="100%" x="15.09" dy="1.2em">WA </tspan><tspan font-size="79.9995%">«waardeOnbekend»</tspan></text></g><g id="shape1075-117" transform="translate(759.538 -263.316)"><path d="M7.09 450.97 7.09 486.4" stroke="#7F7F7F" stroke-width="0.75" stroke-linecap="round" stroke-linejoin="round"/><rect x="-16.956" y="463.886" width="48.0855" height="9.59985" stroke-linecap="butt" fill="#FFFFFF"/><text fill="#7F7F7F" font-family="Calibri" font-size="66.6664%" x="-16.96" y="471.09">vindt plaats op</text></g><g id="shape1076-122" transform="translate(476.073 -367.511)"><path d="M0 451.66 0 456.97 290.55 456.97 290.55 464.46" stroke="#000000" stroke-width="0.75" stroke-linecap="round" stroke-linejoin="round"/></g><g id="shape1077-125" transform="translate(639.066 -142.843)"><path d="M0 450.97 8.27 450.97C8.21371 449.667 9.22468 448.564 10.5281 448.508 11.8315 448.452 12.9337 449.463 12.99 450.766 12.9929 450.834 12.9929 450.902 12.99 450.97L45.35 450.97 45.35 285.14 70.87 285.14" stroke="#7F7F7F" stroke-width="0.75" stroke-linecap="round" stroke-linejoin="round" marker-end="url(#mrkr1-130)"/><rect x="29.222" y="373.177" width="32.2649" height="9.59985" stroke-width="7.2" stroke-linecap="butt" fill="#FFFFFF"/><text fill="#7F7F7F" font-family="Calibri" font-size="66.6664%" x="29.22" y="380.38">eindigt bij</text></g><g id="shape1078-133" transform="translate(532.766 -304.418)"><path d="M-7.09 450.97-17.72 450.97-17.72 612.54-7.09 612.54" stroke="#000000" stroke-width="0.75" stroke-linecap="round" stroke-linejoin="round"/></g><g id="shape1079-136" transform="translate(631.979 -74.8117)"><path d="M7.09 450.97 17.72 450.97 17.72 221.36 7.09 221.36" stroke="#000000" stroke-width="0.75" stroke-linecap="round" stroke-linejoin="round"/><rect x="2.50209" y="344.122" width="30.4291" height="9.59985" stroke-width="7.2" stroke-linecap="butt" fill="#FFFFFF"/><text fill="#000000" font-family="Calibri" font-size="66.6664%" x="2.5" y="351.32">begint bij</text></g><g id="shape1081-141" transform="translate(213.869 -400.796)"><rect x="0" y="422.623" width="170.079" height="28.3465" stroke-width="0.75" stroke-linecap="round" stroke-linejoin="round"/><text fill="#7F7F7F" font-family="Calibri" font-style="italic" font-size="250.001%" x="47.28" y="445.8">Rijden</text></g><g id="shape1083-144" transform="translate(588.406 -400.796)"><rect x="0" y="422.623" width="170.079" height="28.3465" stroke-width="0.75" stroke-linecap="round" stroke-linejoin="round"/><text fill="#7F7F7F" font-family="Calibri" font-style="italic" font-size="250.001%" x="35.23" y="445.8">Stoppen</text></g><g id="shape1084-147" transform="translate(752.451 -400.796)"><rect x="0" y="422.623" width="170.079" height="28.3465" stroke-width="0.75" stroke-linecap="round" stroke-linejoin="round"/><text fill="#7F7F7F" font-family="Calibri" font-style="italic" font-size="250.001%" x="47.28" y="445.8">Rijden</text></g></g></svg>